<?xml version="1.0" standalone="no"?>
<!DOCTYPE svg PUBLIC "-//W3C//DTD SVG 20010904//EN"
 "http://www.w3.org/TR/2001/REC-SVG-20010904/DTD/svg10.dtd">
<svg version="1.0" xmlns="http://www.w3.org/2000/svg"
 width="1637.000000pt" height="1484.000000pt" viewBox="0 0 1637.000000 1484.000000"
 preserveAspectRatio="xMidYMid meet">

<g transform="translate(0.000000,1484.000000) scale(0.100000,-0.100000)"
fill="#000000" stroke="none">
<path d="M9584 14375 c-34 -7 -84 -25 -111 -39 -62 -31 -153 -112 -178 -160
-11 -20 -24 -36 -30 -36 -6 0 -57 16 -114 35 -120 40 -238 67 -406 91 -170 25
-603 26 -805 1 -748 -92 -1456 -383 -1942 -798 l-68 -58 -57 21 c-80 28 -207
28 -287 -1 -275 -98 -393 -391 -260 -652 112 -222 398 -306 631 -185 88 45
197 187 218 283 6 29 10 32 53 37 60 8 1766 186 1810 189 30 2 34 -2 65 -58
l33 -60 -246 -470 -247 -470 -125 4 c-104 3 -137 0 -203 -18 -201 -55 -369
-193 -459 -375 -46 -93 -66 -180 -66 -292 0 -317 211 -591 520 -674 25 -7 89
-15 143 -19 l99 -6 173 -460 c172 -457 173 -460 152 -475 -176 -124 -254 -230
-292 -392 -7 -33 -16 -62 -19 -65 -3 -3 -335 -7 -738 -9 -403 -2 -869 -6
-1035 -8 -218 -2 -303 0 -303 8 0 6 -13 39 -30 74 -128 271 -480 333 -693 121
-174 -174 -166 -445 17 -617 90 -84 149 -106 290 -108 l109 -1 294 -489 c161
-269 293 -492 293 -495 0 -4 -20 -36 -45 -73 -111 -166 -122 -375 -30 -562 26
-53 54 -90 109 -142 92 -87 175 -129 301 -150 84 -15 99 -14 174 0 74 15 194
64 243 100 21 15 -42 58 803 -545 581 -414 650 -465 647 -487 -10 -94 -6 -199
11 -247 45 -128 182 -284 299 -340 37 -18 99 -38 138 -45 146 -25 311 31 425
145 164 164 201 398 96 606 -33 63 -114 158 -155 180 -14 8 -26 20 -26 26 0
16 134 248 188 325 124 178 249 298 367 354 28 14 89 31 135 40 261 46 476 24
893 -95 327 -93 368 -102 487 -102 250 1 428 119 552 368 74 147 123 344 198
799 67 408 97 516 180 643 110 167 253 232 514 233 82 0 107 3 103 13 -8 19
-349 751 -457 982 l-99 210 -6 100 c-13 193 21 560 62 665 12 33 17 80 19 175
1 109 5 137 22 170 33 65 52 144 52 214 -1 137 -42 234 -143 334 -63 64 -70
75 -103 170 -196 564 -571 1108 -1049 1522 -122 105 -344 271 -465 346 l-98
61 13 39 c90 254 -87 548 -359 598 -74 14 -105 13 -182 -4z m-979 -325 c174
-16 328 -47 477 -96 l138 -45 0 -43 0 -42 -237 -139 c-131 -76 -242 -140 -246
-143 -5 -2 -18 5 -30 16 -37 34 -121 70 -189 82 -165 29 -342 -62 -418 -213
-16 -33 -30 -66 -30 -73 0 -7 -18 -15 -42 -19 -82 -11 -1861 -195 -1862 -193
-1 2 -14 29 -29 62 -15 32 -27 59 -25 61 110 90 199 156 304 225 472 310 1105
517 1724 563 106 8 363 6 465 -3z m885 -549 c65 -31 86 -36 167 -39 107 -5
198 18 272 67 l44 29 41 -25 c297 -186 513 -359 737 -590 283 -291 522 -643
674 -996 79 -182 78 -173 9 -180 -83 -9 -186 -62 -257 -135 l-58 -58 -332 112
c-183 61 -332 115 -332 120 1 5 4 36 8 69 32 244 -145 491 -395 550 -145 34
-305 -1 -426 -93 l-33 -25 -42 40 c-23 22 -177 167 -342 323 -165 156 -323
306 -352 334 l-52 51 20 55 c14 41 19 77 17 144 l-2 88 234 138 234 138 46
-40 c25 -23 79 -57 120 -77z m-402 -1020 c374 -354 384 -365 377 -395 -3 -17
-9 -45 -12 -63 -5 -28 -12 -34 -52 -47 -307 -99 -1252 -396 -1259 -396 -5 0
-13 12 -17 28 -20 81 -144 244 -237 312 l-36 27 236 452 237 452 50 -8 c81
-13 159 -6 222 20 l58 24 25 -21 c13 -12 197 -185 408 -385z m412 -788 c42
-84 132 -176 217 -221 191 -101 424 -69 584 79 l44 41 335 -113 c184 -62 343
-116 353 -121 12 -6 16 -16 12 -28 -10 -32 15 -153 47 -219 18 -37 54 -89 87
-123 l57 -58 -321 -712 -320 -712 -120 -1 c-132 -1 -187 -16 -278 -76 -40 -26
-49 -29 -65 -17 -10 7 -465 395 -1011 862 -764 652 -991 852 -986 865 12 29
35 145 35 176 l0 30 648 206 c356 114 648 207 648 208 1 0 16 -29 34 -66z
m130 -2157 c206 -176 376 -321 378 -322 2 -1 -2 -23 -9 -49 l-12 -47 -56 6
c-31 4 -301 27 -600 51 -299 25 -546 46 -548 49 -2 2 -8 31 -14 65 -46 291
-286 503 -578 513 l-74 3 -173 465 c-95 255 -172 465 -171 466 1 0 26 14 56
30 30 16 83 56 119 90 l66 61 620 -531 c342 -291 790 -674 996 -850z m2040
1329 c0 -3 -9 -31 -19 -63 -47 -141 -80 -540 -62 -755 l11 -130 205 -440 c113
-241 205 -447 205 -457 0 -23 -15 -34 -65 -50 -174 -55 -330 -192 -417 -365
-83 -164 -107 -253 -179 -680 -33 -198 -76 -421 -95 -495 -74 -290 -184 -430
-362 -461 -81 -14 -180 4 -467 86 -471 135 -725 161 -1017 105 -178 -34 -281
-89 -426 -225 -149 -141 -264 -299 -397 -548 -31 -59 -60 -106 -62 -103 -6 5
-133 2235 -132 2311 0 39 1 41 62 69 86 41 212 167 257 259 25 51 38 67 54 67
11 0 289 -23 616 -50 327 -27 601 -50 608 -50 6 0 12 -5 12 -10 0 -32 72 -150
123 -202 188 -191 488 -194 683 -6 186 178 202 451 38 660 -24 31 -44 59 -44
63 0 5 596 1334 638 1421 15 33 17 34 81 35 36 1 77 5 91 9 30 10 60 12 60 5z
m-4061 -1883 c70 -194 245 -338 459 -379 58 -11 92 -22 92 -30 0 -28 120
-2173 125 -2243 l6 -76 -43 -21 c-24 -11 -69 -42 -100 -68 -39 -32 -61 -44
-71 -38 -7 4 -323 228 -701 497 -509 362 -686 494 -682 505 3 9 15 43 27 76
12 34 23 95 26 140 16 265 -163 505 -427 571 -82 21 -223 15 -301 -12 l-56
-20 -291 484 -290 484 39 56 c21 30 39 60 39 67 0 6 6 20 14 31 14 18 38 19
888 24 480 3 952 7 1049 8 l176 2 22 -58z"/>
<path d="M4432 13166 c-132 -32 -267 -136 -330 -253 -159 -298 0 -663 324
-747 255 -66 524 78 616 330 17 47 21 82 21 169 1 96 -3 119 -26 178 -33 86
-72 141 -141 205 -123 112 -301 157 -464 118z"/>
<path d="M6124 12550 c-131 -46 -231 -152 -269 -284 -37 -128 -7 -283 75 -386
23 -29 115 -106 137 -114 0 -1 -36 -151 -80 -335 l-82 -333 -65 -3 c-128 -4
-248 -56 -341 -146 l-51 -50 -262 154 c-235 140 -261 157 -257 178 2 13 4 76
5 139 1 113 0 116 -36 192 -85 178 -242 279 -434 279 -97 0 -146 -11 -228 -53
-250 -126 -334 -460 -175 -697 151 -226 472 -279 693 -113 l51 38 272 -160
272 -161 -6 -72 c-20 -244 143 -476 381 -539 60 -16 192 -18 256 -3 78 18 172
71 236 134 161 158 200 399 97 603 -27 54 -124 164 -171 193 l-23 14 76 310
c42 171 80 326 85 346 10 35 13 37 68 48 132 26 241 111 303 236 32 67 34 74
34 180 0 103 -2 114 -31 176 -53 112 -140 192 -251 230 -74 25 -207 25 -279
-1z"/>
<path d="M1933 12422 c-154 -55 -242 -185 -231 -341 9 -122 78 -225 187 -278
49 -24 68 -28 146 -28 83 0 95 2 153 34 118 64 177 163 177 296 -1 97 -30 170
-95 235 -87 87 -228 121 -337 82z"/>
<path d="M3010 11696 c-224 -63 -380 -268 -380 -501 0 -133 47 -249 142 -351
197 -210 529 -215 733 -11 280 280 159 749 -224 861 -65 19 -206 20 -271 2z"/>
<path d="M3736 10365 c-254 -65 -430 -304 -413 -560 17 -255 200 -457 450
-501 209 -37 426 56 538 230 197 302 68 690 -269 813 -85 31 -221 39 -306 18z"/>
<path d="M465 4184 c-100 -52 -140 -162 -96 -260 10 -23 24 -45 30 -48 8 -5
11 -199 11 -677 l0 -669 140 0 140 0 0 285 0 285 925 0 925 0 0 -275 0 -275
115 0 115 0 0 660 0 660 -115 0 -115 0 0 -275 0 -275 -925 0 -925 0 0 270 c0
269 0 269 24 305 66 97 31 232 -75 285 -47 24 -132 26 -174 4z"/>
<path d="M3089 4095 c-76 -24 -139 -111 -139 -190 0 -41 22 -96 50 -129 l29
-33 3 -464 3 -464 34 -63 c41 -75 103 -135 179 -170 l57 -27 895 0 895 0 57
27 c76 35 148 104 184 175 l29 58 3 528 3 527 -115 0 -115 0 -3 -509 -3 -509
-25 -27 c-54 -58 -9 -55 -912 -55 -814 0 -834 1 -866 20 -18 11 -41 34 -52 52
-19 32 -20 52 -20 462 l0 428 25 20 c82 65 87 231 9 299 -56 49 -135 66 -205
44z"/>
<path d="M5670 3928 c-26 -14 -57 -41 -75 -66 -26 -38 -30 -52 -30 -112 0 -60
4 -74 30 -112 75 -107 228 -117 319 -19 l30 31 758 0 c618 0 765 -3 791 -14
70 -29 116 -117 97 -188 -11 -40 -50 -91 -84 -111 -16 -9 -242 -13 -951 -17
l-930 -5 -3 -382 -2 -383 1003 0 c1095 0 1053 -2 1154 57 61 35 128 114 155
181 18 45 22 77 23 152 0 84 -3 101 -28 152 -18 37 -51 78 -93 116 l-64 60 19
44 c67 158 44 310 -66 428 -37 40 -77 70 -121 92 l-67 33 -806 5 -807 5 -24
22 c-59 55 -154 68 -228 31z m1919 -837 c75 -15 129 -69 138 -139 8 -59 -26
-125 -81 -157 l-43 -25 -876 0 -877 0 0 165 0 165 848 0 c466 -1 867 -5 891
-9z"/>
<path d="M12027 3940 c-46 -14 -94 -56 -117 -105 -60 -125 23 -266 165 -283
53 -6 143 33 169 73 l16 25 395 0 395 0 0 -550 0 -550 110 0 110 0 0 550 0
550 530 0 530 0 0 110 0 110 -1036 0 -1035 0 -33 25 c-66 50 -132 65 -199 45z"/>
<path d="M8085 3848 c-3 -13 -5 -61 -3 -108 l3 -85 881 -5 880 -5 77 -38 c381
-188 336 -700 -72 -821 -48 -14 -139 -16 -746 -16 l-691 0 -30 31 c-38 41 -82
59 -144 59 -164 0 -254 -185 -153 -318 66 -88 216 -98 294 -19 l26 26 724 3
724 3 77 26 c213 73 369 218 444 414 21 55 28 93 32 178 6 136 -8 209 -61 317
-58 119 -176 238 -297 298 -164 81 -98 76 -1082 80 l-877 3 -6 -23z"/>
<path d="M10994 3323 c-681 -746 -694 -760 -694 -767 0 -3 330 -6 733 -6 734
0 734 0 753 -21 59 -66 183 -78 262 -27 57 38 86 102 80 178 -7 101 -74 170
-173 178 -67 5 -116 -11 -162 -54 l-36 -34 -479 2 -479 3 343 377 c189 207
348 376 354 375 9 -2 525 -560 834 -903 l65 -72 148 -1 c88 -1 147 3 145 8 -1
5 -84 99 -183 208 -339 373 -1007 1103 -1009 1103 -1 0 -227 -246 -502 -547z"/>
<path d="M14338 3353 c-604 -660 -718 -786 -718 -795 0 -5 323 -8 718 -8 l719
0 22 -24 c49 -52 147 -72 218 -45 65 24 122 109 123 182 1 179 -226 265 -349
133 l-24 -26 -464 0 c-255 0 -463 2 -463 5 0 3 118 135 263 293 144 158 298
327 341 375 44 48 83 87 87 87 4 0 209 -220 455 -490 l449 -490 142 0 c90 0
143 4 143 10 0 9 -216 250 -819 910 -231 253 -361 390 -372 390 -4 0 -216
-228 -471 -507z"/>
</g>
</svg>
